<?xml version="1.0" encoding="iso-8859-1"?>
<!-- Uploaded to: SVG Repo, www.svgrepo.com, Generator: SVG Repo Mixer Tools -->
<svg fill="#000000" version="1.1" id="Capa_1" xmlns="http://www.w3.org/2000/svg" xmlns:xlink="http://www.w3.org/1999/xlink" 
	 viewBox="0 0 34.628 34.628" xml:space="preserve" width="40px" height="40px">
<g>
	<path d="M33.851,3.815H0.776C0.348,3.815,0,4.083,0,4.419V30.21c0,0.33,0.348,0.604,0.776,0.604H33.85
		c0.428,0,0.778-0.273,0.778-0.604V4.419C34.629,4.083,34.278,3.815,33.851,3.815z M3.17,10.198h3.424V6.84h2.943v3.357h3.38v2.939
		h-3.38v3.451H6.594v-3.45H3.17V10.198z M31.652,27.045c0,0.256-0.288,0.469-0.641,0.469H3.855c-0.352,0-0.64-0.213-0.64-0.469
		L31.012,6.508c0.353,0,0.641,0.207,0.641,0.469L31.652,27.045L31.652,27.045z"/>
	<rect x="17.315" y="20.875" width="7.997" height="3.035"/>
	<g>
	</g>
	<g>
	</g>
	<g>
	</g>
	<g>
	</g>
	<g>
	</g>
	<g>
	</g>
	<g>
	</g>
	<g>
	</g>
	<g>
	</g>
	<g>
	</g>
	<g>
	</g>
	<g>
	</g>
	<g>
	</g>
	<g>
	</g>
	<g>
	</g>
</g>
</svg>